<svg width="141" height="33" viewBox="0 0 141 33" fill="none" xmlns="http://www.w3.org/2000/svg">
<path d="M11.3775 2.24H7.05748C3.05748 2.24 1.05748 4.08 1.05748 7.76H0.0974776V4.16C0.0974776 1.6 1.45748 0.319999 4.17748 0.319999H26.4975V2.24H15.6975V32H11.3775V2.24ZM28.2354 32.48C27.2114 32.48 26.1714 32.272 25.1154 31.856C24.0594 31.408 23.1474 30.688 22.3794 29.696C21.6434 28.704 21.2754 27.392 21.2754 25.76C21.2754 23.328 22.3954 21.6 24.6354 20.576C26.9074 19.552 29.8674 19.04 33.5154 19.04H34.9554C34.9554 15.904 34.5234 13.76 33.6594 12.608C32.7954 11.456 31.5474 10.88 29.9154 10.88C28.4754 10.88 27.3234 11.184 26.4594 11.792C25.5954 12.4 24.9874 13.456 24.6354 14.96H22.4754C22.4754 13.872 22.5394 13.024 22.6674 12.416C22.7954 11.776 23.1314 11.184 23.6754 10.64C24.2514 10.064 25.1954 9.648 26.5074 9.392C27.8514 9.104 29.3074 8.96 30.8754 8.96C33.4674 8.96 35.5154 9.664 37.0194 11.072C38.5234 12.448 39.2754 15.104 39.2754 19.04V32H36.8754L35.1954 29.84H34.9554C34.3794 30.576 33.5314 31.2 32.4114 31.712C31.2914 32.224 29.8994 32.48 28.2354 32.48ZM30.3954 30.32C31.4514 30.32 32.3314 30.064 33.0354 29.552C33.7394 29.04 34.3794 28.336 34.9554 27.44V20.96H33.5154C31.1474 20.96 29.2754 21.408 27.8994 22.304C26.5234 23.168 25.8354 24.32 25.8354 25.76C25.8354 27.232 26.2674 28.368 27.1314 29.168C28.0274 29.936 29.1154 30.32 30.3954 30.32ZM48.1901 21.2L44.0141 14.24C42.6701 11.904 41.0221 10.624 39.0701 10.4V9.44H43.1501C44.2061 9.44 45.1981 9.776 46.1261 10.448C47.0541 11.12 47.8701 12.064 48.5741 13.28L51.5501 18.32L57.7901 9.44H60.1901L52.5101 20.24L56.6861 27.2C57.9981 29.504 59.7261 30.784 61.8701 31.04V32H57.5501C56.4941 32 55.5021 31.664 54.5741 30.992C53.6461 30.32 52.8301 29.376 52.1261 28.16L49.1501 23.12L42.9101 32H40.5101L48.1901 21.2ZM71.5582 6.08C71.5582 4.448 71.3342 3.248 70.8862 2.48C70.4382 1.68 69.5422 1.28 68.1982 1.28H67.2382V0.319999H71.5582C72.7422 0.319999 73.6222 0.479999 74.1982 0.799998C74.8062 1.088 75.2382 1.632 75.4942 2.432C75.7502 3.232 75.8782 4.448 75.8782 6.08V14.72H90.2782V0.319999H94.5982V26.24C94.5982 27.872 94.8222 29.088 95.2702 29.888C95.7182 30.656 96.6142 31.04 97.9582 31.04H98.9182V32H94.5982C93.4142 32 92.5182 31.856 91.9102 31.568C91.3342 31.248 90.9182 30.688 90.6622 29.888C90.4062 29.088 90.2782 27.872 90.2782 26.24V16.64H75.8782V32H71.5582V6.08ZM107.589 32.48C105.189 32.48 103.221 31.84 101.685 30.56C100.181 29.28 99.4287 27.04 99.4287 23.84V15.2C99.4287 13.568 99.2047 12.368 98.7567 11.6C98.3087 10.8 97.4127 10.4 96.0687 10.4H95.5887V9.44H99.4287C100.613 9.44 101.493 9.6 102.069 9.92C102.677 10.208 103.109 10.752 103.365 11.552C103.621 12.352 103.749 13.568 103.749 15.2V23.84C103.749 26.08 104.245 27.728 105.237 28.784C106.261 29.808 107.525 30.32 109.029 30.32C110.725 30.32 112.325 29.472 113.829 27.776V9.44H118.149V32H115.749L114.069 30.08H113.829C113.157 30.752 112.277 31.328 111.189 31.808C110.133 32.256 108.933 32.48 107.589 32.48ZM132.042 32.48C130.41 32.48 129.066 32.224 128.01 31.712C126.954 31.2 126.138 30.576 125.562 29.84H125.322L123.642 32H121.242V6.08C121.242 4.448 121.018 3.248 120.57 2.48C120.122 1.68 119.226 1.28 117.882 1.28H116.922V0.319999H121.242C122.426 0.319999 123.306 0.479999 123.882 0.799998C124.49 1.088 124.922 1.632 125.178 2.432C125.434 3.232 125.562 4.448 125.562 6.08V10.4C126.49 9.952 127.418 9.6 128.346 9.344C129.274 9.088 130.346 8.96 131.562 8.96C134.538 8.96 136.794 10.064 138.33 12.272C139.898 14.48 140.682 17.296 140.682 20.72C140.682 24.112 139.93 26.928 138.426 29.168C136.922 31.376 134.794 32.48 132.042 32.48ZM130.602 30.56C132.426 30.56 133.802 29.664 134.73 27.872C135.658 26.048 136.122 23.664 136.122 20.72C136.122 17.744 135.626 15.36 134.634 13.568C133.674 11.776 132.17 10.88 130.122 10.88C129.45 10.88 128.762 11.008 128.058 11.264C127.354 11.52 126.522 11.872 125.562 12.32V27.68C126.138 28.544 126.81 29.248 127.578 29.792C128.378 30.304 129.386 30.56 130.602 30.56Z" fill="black"/>
</svg>
