<svg width="92" height="83" viewBox="0 0 92 83" fill="none" xmlns="http://www.w3.org/2000/svg">
<path d="M69.6719 68.0936C68.4234 68.0936 67.2029 67.7234 66.1648 67.0297C65.1267 66.3361 64.3177 65.3502 63.8399 64.1968C63.3621 63.0433 63.2371 61.7741 63.4807 60.5496C63.7242 59.3251 64.3254 58.2003 65.2083 57.3175C66.0911 56.4346 67.2159 55.8334 68.4404 55.5899C69.6649 55.3463 70.9341 55.4713 72.0876 55.9491C73.241 56.4269 74.2269 57.236 74.9205 58.274C75.6142 59.3121 75.9844 60.5326 75.9844 61.7811C75.9844 63.4553 75.3193 65.0609 74.1355 66.2447C72.9517 67.4285 71.3461 68.0936 69.6719 68.0936ZM83.875 41.2654H66.5156C65.26 41.2654 64.0558 41.7642 63.1679 42.6521C62.2801 43.54 61.7812 44.7442 61.7812 45.9998C61.7812 47.2555 62.2801 48.4597 63.1679 49.3475C64.0558 50.2354 65.26 50.7342 66.5156 50.7342H82.2969V72.8279H9.70312V50.7342H25.4844C26.74 50.7342 27.9442 50.2354 28.8321 49.3475C29.72 48.4597 30.2188 47.2555 30.2188 45.9998C30.2188 44.7442 29.72 43.54 28.8321 42.6521C27.9442 41.7642 26.74 41.2654 25.4844 41.2654H8.125C6.03228 41.2654 4.02526 42.0968 2.54549 43.5766C1.06571 45.0563 0.234375 47.0634 0.234375 49.1561V74.4061C0.234375 76.4988 1.06571 78.5058 2.54549 79.9856C4.02526 81.4654 6.03228 82.2967 8.125 82.2967H83.875C85.9677 82.2967 87.9747 81.4654 89.4545 79.9856C90.9343 78.5058 91.7656 76.4988 91.7656 74.4061V49.1561C91.7656 47.0634 90.9343 45.0563 89.4545 43.5766C87.9747 42.0968 85.9677 41.2654 83.875 41.2654ZM30.4121 27.2556L41.2656 16.41V45.9998C41.2656 47.2555 41.7644 48.4597 42.6523 49.3475C43.5402 50.2354 44.7444 50.7342 46 50.7342C47.2556 50.7342 48.4598 50.2354 49.3477 49.3475C50.2356 48.4597 50.7344 47.2555 50.7344 45.9998V16.41L61.5879 27.2675C62.0283 27.7079 62.5511 28.0572 63.1265 28.2955C63.7019 28.5339 64.3186 28.6566 64.9414 28.6566C65.5642 28.6566 66.181 28.5339 66.7564 28.2955C67.3317 28.0572 67.8546 27.7079 68.295 27.2675C68.7354 26.8271 69.0847 26.3043 69.323 25.7289C69.5614 25.1535 69.684 24.5368 69.684 23.914C69.684 23.2912 69.5614 22.6745 69.323 22.0991C69.0847 21.5237 68.7354 21.0008 68.295 20.5605L49.3575 1.62295C48.9176 1.18158 48.395 0.831379 47.8195 0.592426C47.244 0.353472 46.6271 0.230469 46.0039 0.230469C45.3808 0.230469 44.7639 0.353472 44.1884 0.592426C43.6129 0.831379 43.0903 1.18158 42.6504 1.62295L23.7129 20.5605C23.2725 21.0008 22.9232 21.5237 22.6849 22.0991C22.4465 22.6745 22.3239 23.2912 22.3239 23.914C22.3239 25.1718 22.8235 26.3781 23.7129 27.2675C24.6023 28.1569 25.8086 28.6566 27.0664 28.6566C28.3243 28.6566 29.5306 28.1569 30.42 27.2675L30.4121 27.2556Z" fill="black"/>
</svg>
